<svg xmlns="http://www.w3.org/2000/svg" width="512" height="512"><g xmlns="http://www.w3.org/2000/svg" fill="#fd7e37"><path d="M467 120h-46v75c0 8.291-6.709 15-15 15H106c-8.291 0-15-6.709-15-15v-75H46c-24.814 0-46 20.186-46 45v151c0 24.814 21.186 45 46 45h421c24.814 0 45-20.186 45-45V165c0-24.814-20.186-45-45-45zM346 270c-8.284 0-15-6.716-15-15s6.716-15 15-15 15 6.716 15 15-6.716 15-15 15zm60 0c-8.284 0-15-6.716-15-15s6.716-15 15-15 15 6.716 15 15-6.716 15-15 15z" data-original="#000000"/><path d="M376 0H136c-8.284 0-15 6.714-15 15v165h270V15c0-8.286-6.716-15-15-15zm-60 135H196c-8.291 0-15-6.709-15-15s6.709-15 15-15h120c8.291 0 15 6.709 15 15s-6.709 15-15 15zm0-60H196c-8.291 0-15-6.709-15-15s6.709-15 15-15h120c8.291 0 15 6.709 15 15s-6.709 15-15 15zM121 482v-91H76v76c0 8.284 6.716 15 15 15zm45 30h15c8.284 0 15-6.716 15-15V391h-45v106c0 8.284 6.716 15 15 15zm60-121h45v91h-45zm105 121c8.284 0 15-6.716 15-15V391h-45v106c0 8.284 6.716 15 15 15zm90-45v-76h-45v91h30c8.284 0 15-6.716 15-15z" data-original="#000000"/></g></svg>