<?xml version="1.0"?>
<svg xmlns="http://www.w3.org/2000/svg" xmlns:xlink="http://www.w3.org/1999/xlink" xmlns:svgjs="http://svgjs.com/svgjs" version="1.1" width="512" height="512" x="0" y="0" viewBox="0 0 512 512" style="enable-background:new 0 0 512 512" xml:space="preserve" class=""><g><g xmlns="http://www.w3.org/2000/svg"><path d="m467 120h-46v75c0 8.291-6.709 15-15 15h-300c-8.291 0-15-6.709-15-15v-75h-45c-24.814 0-46 20.186-46 45v151c0 24.814 21.186 45 46 45h421c24.814 0 45-20.186 45-45v-151c0-24.814-20.186-45-45-45zm-121 150c-8.284 0-15-6.716-15-15s6.716-15 15-15 15 6.716 15 15-6.716 15-15 15zm60 0c-8.284 0-15-6.716-15-15s6.716-15 15-15 15 6.716 15 15-6.716 15-15 15z" fill="#fd7e37" data-original="#000000" style="" class=""/><path d="m376 0h-240c-8.284 0-15 6.714-15 15v165h270v-165c0-8.286-6.716-15-15-15zm-60 135h-120c-8.291 0-15-6.709-15-15s6.709-15 15-15h120c8.291 0 15 6.709 15 15s-6.709 15-15 15zm0-60h-120c-8.291 0-15-6.709-15-15s6.709-15 15-15h120c8.291 0 15 6.709 15 15s-6.709 15-15 15z" fill="#fd7e37" data-original="#000000" style="" class=""/><path d="m121 482v-91h-45v76c0 8.284 6.716 15 15 15z" fill="#fd7e37" data-original="#000000" style="" class=""/><path d="m166 512h15c8.284 0 15-6.716 15-15v-106h-45v106c0 8.284 6.716 15 15 15z" fill="#fd7e37" data-original="#000000" style="" class=""/><path d="m226 391h45v91h-45z" fill="#fd7e37" data-original="#000000" style="" class=""/><path d="m331 512c8.284 0 15-6.716 15-15v-106h-45v106c0 8.284 6.716 15 15 15z" fill="#fd7e37" data-original="#000000" style="" class=""/><path d="m421 467v-76h-45v91h30c8.284 0 15-6.716 15-15z" fill="#fd7e37" data-original="#000000" style="" class=""/></g></g></svg>
